<?xml version="1.0" standalone="no"?>
<!DOCTYPE svg PUBLIC "-//W3C//DTD SVG 20010904//EN"
 "http://www.w3.org/TR/2001/REC-SVG-20010904/DTD/svg10.dtd">
<svg version="1.0" xmlns="http://www.w3.org/2000/svg"
 width="512.000000pt" height="512.000000pt" viewBox="0 0 512.000000 512.000000"
 preserveAspectRatio="xMidYMid meet">

<g transform="translate(0.000000,512.000000) scale(0.100000,-0.100000)"
fill="rgb(255, 255, 255)" stroke="none">
<path d="M1220 4135 l0 -475 -125 0 -125 0 0 -610 0 -610 125 0 125 0 0 -125
0 -125 120 0 120 0 0 -120 0 -120 365 0 365 0 0 -120 0 -120 -120 0 -120 0 0
-125 0 -125 -245 0 -245 0 0 125 0 125 -120 0 -120 0 0 120 0 120 -245 0 -245
0 0 -120 0 -120 120 0 120 0 0 -125 0 -125 125 0 125 0 0 -120 0 -120 120 0
120 0 0 -125 0 -125 245 0 245 0 0 -224 0 -225 -22 -4 c-38 -7 906 -7 1205 0
l277 6 0 594 0 593 -120 0 -120 0 0 120 0 120 365 0 365 0 0 120 0 120 120 0
120 0 0 125 0 125 125 0 125 0 0 610 0 610 -125 0 -125 0 0 475 0 475 -240 0
-240 0 0 -110 0 -110 -975 0 -975 0 0 110 0 110 -245 0 -245 0 0 -475z"/>
</g>
</svg>
