<?xml version="1.0" standalone="no"?>
<!DOCTYPE svg PUBLIC "-//W3C//DTD SVG 20010904//EN"
 "http://www.w3.org/TR/2001/REC-SVG-20010904/DTD/svg10.dtd">
<svg version="1.0" xmlns="http://www.w3.org/2000/svg"
 width="430" height="300" viewBox="0 0 1000 10"
 preserveAspectRatio="xMidYMid meet">

<g transform="translate(-375,880) scale(0.350000,-0.350000)"
fill="rgb(183, 183, 183)" stroke="none">
<path d="M2110 3280 l0 -100 -100 0 -100 0 0 -100 0 -100 -195 0 -195 0 0 -95
0 -95 -100 0 -100 0 0 -100 0 -100 -95 0 -95 0 0 -295 0 -295 95 0 95 0 0
-100 0 -100 100 0 100 0 0 -95 0 -95 980 0 980 0 0 95 0 95 100 0 100 0 0 100
0 100 95 0 95 0 0 295 0 295 -95 0 -95 0 0 100 0 100 -195 0 -195 0 0 95 0 95
-100 0 -100 0 0 100 0 100 -100 0 -100 0 0 100 0 100 -390 0 -390 0 0 -100z
m780 -200 l0 -100 100 0 100 0 0 -95 0 -95 95 0 95 0 0 -100 0 -100 200 0 200
0 0 -295 0 -295 -100 0 -100 0 0 -100 0 -100 -837 0 c-461 0 -902 3 -980 7
l-143 6 0 94 0 93 -100 0 -100 0 0 295 0 295 100 0 100 0 0 100 0 100 195 0
195 0 0 95 0 94 98 3 97 3 3 98 3 97 389 0 390 0 0 -100z"/>
</g>
</svg>
