<?xml version="1.0" encoding="UTF-8" standalone="no" ?>
<!DOCTYPE svg PUBLIC "-//W3C//DTD SVG 1.1//EN" "http://www.w3.org/Graphics/SVG/1.1/DTD/svg11.dtd">
<svg xmlns="http://www.w3.org/2000/svg" xmlns:xlink="http://www.w3.org/1999/xlink" version="1.1" width="1080" height="1080" viewBox="0 0 1080 1080" xml:space="preserve">
<desc>Created with Fabric.js 5.2.4</desc>
<defs>
</defs>
<g transform="matrix(1 0 0 1 540 540)" id="3b0dedcb-15b7-471d-9c42-7b1ff3aea028"  >
</g>
<g transform="matrix(1 0 0 1 540 540)" id="b6e1ec36-81ce-41bf-9c61-ab33654be7e1"  >
<rect style="stroke: none; stroke-width: 1; stroke-dasharray: none; stroke-linecap: butt; stroke-dashoffset: 0; stroke-linejoin: miter; stroke-miterlimit: 4; fill: rgb(255,0,0); fill-opacity: 0; fill-rule: nonzero; opacity: 1;" vector-effect="non-scaling-stroke"  x="-540" y="-540" rx="0" ry="0" width="1080" height="1080" />
</g>
<g transform="matrix(0.13 0 0 -0.13 628.23 526.42)"  >
<path style="stroke: none; stroke-width: 1; stroke-dasharray: none; stroke-linecap: butt; stroke-dashoffset: 0; stroke-linejoin: miter; stroke-miterlimit: 4; fill: rgb(255,255,255); fill-rule: nonzero; opacity: 1;" vector-effect="non-scaling-stroke"  transform=" translate(-7240, -6505)" d="M 4652 10210 L 4655 9840 L 6500 9837 L 8345 9835 L 8350 9465 L 8355 9095 L 8723 9092 L 9090 9090 L 9090 8720 L 9090 8350 L 9460 8350 L 9830 8350 L 9830 6500 L 9830 4651 L 9471 4648 C 9273 4646 9109 4642 9106 4639 C 9103 4636 9097 4471 9094 4272 L 9087 3910 L 8718 3910 L 8350 3910 L 8350 3540 L 8350 3170 L 6500 3170 L 4650 3170 L 4650 3540 L 4650 3910 L 4280 3910 L 3910 3910 L 3910 3540 L 3910 3170 L 4280 3170 L 4650 3170 L 4650 2800 L 4650 2430 L 6500 2430 L 8350 2430 L 8350 2800 L 8350 3170 L 8720 3170 L 9090 3170 L 9090 3540 L 9090 3910 L 9460 3910 L 9830 3910 L 9830 4280 L 9830 4650 L 10200 4650 L 10570 4650 L 10570 6500 L 10570 8350 L 10200 8350 L 9830 8350 L 9830 8723 L 9830 9095 L 9460 9092 L 9090 9090 L 9090 9460 L 9090 9830 L 8720 9830 L 8350 9830 L 8350 10205 L 8350 10580 L 6500 10580 L 4650 10580 L 4652 10210 z" stroke-linecap="round" />
</g>
<g transform="matrix(0.13 0 0 -0.13 192.87 192.87)"  >
<path style="stroke: none; stroke-width: 1; stroke-dasharray: none; stroke-linecap: butt; stroke-dashoffset: 0; stroke-linejoin: miter; stroke-miterlimit: 4; fill: rgb(255,255,255); fill-rule: nonzero; opacity: 1;" vector-effect="non-scaling-stroke"  transform=" translate(-3910, -9090)" d="M 3908 9463 L 3905 9095 L 3538 9092 L 3170 9090 L 3170 8720 L 3170 8350 L 3535 8350 L 3900 8350 L 3900 8713 C 3900 8982 3903 9079 3912 9088 C 3921 9097 4018 9100 4287 9100 L 4650 9100 L 4650 9465 L 4650 9830 L 4280 9830 L 3910 9830 L 3908 9463 z" stroke-linecap="round" />
</g>
<g transform="matrix(0.13 0 0 -0.13 44.77 534.5)"  >
<path style="stroke: none; stroke-width: 1; stroke-dasharray: none; stroke-linecap: butt; stroke-dashoffset: 0; stroke-linejoin: miter; stroke-miterlimit: 4; fill: rgb(255,255,255); fill-rule: nonzero; opacity: 1;" vector-effect="non-scaling-stroke"  transform=" translate(-2790, -6500)" d="M 2420 6500 L 2420 4650 L 2790 4650 C 3079 4650 3160 4653 3160 4663 C 3160 4669 3160 5501 3160 6510 L 3160 8345 L 2790 8348 L 2420 8350 L 2420 6500 z" stroke-linecap="round" />
</g>
<g transform="matrix(0.13 0 0 -0.13 144.12 835.43)"  >
<path style="stroke: none; stroke-width: 1; stroke-dasharray: none; stroke-linecap: butt; stroke-dashoffset: 0; stroke-linejoin: miter; stroke-miterlimit: 4; fill: rgb(255,255,255); fill-rule: nonzero; opacity: 1;" vector-effect="non-scaling-stroke"  transform=" translate(-3535, -4280)" d="M 3170 4280 L 3170 3910 L 3535 3910 L 3900 3910 L 3900 4280 L 3900 4650 L 3535 4650 L 3170 4650 L 3170 4280 z" stroke-linecap="round" />
</g>
<g transform="matrix(13.09 0 0 13.09 540 540)" id="6709b07f-b538-4b1f-8e0c-3d8c508136a6"  >
<circle style="stroke: rgb(0,0,0); stroke-width: 0; stroke-dasharray: none; stroke-linecap: butt; stroke-dashoffset: 0; stroke-linejoin: miter; stroke-miterlimit: 4; fill: rgb(255,255,255); fill-rule: nonzero; opacity: 1;" vector-effect="non-scaling-stroke"  cx="0" cy="0" r="35" />
</g>
<g transform="matrix(1 0 0 1 540 540)"  >
<path style="stroke: rgb(0,0,0); stroke-width: 0; stroke-dasharray: none; stroke-linecap: butt; stroke-dashoffset: 0; stroke-linejoin: miter; stroke-miterlimit: 4; fill: rgb(101,101,101); fill-rule: nonzero; opacity: 1;" vector-effect="non-scaling-stroke"  transform=" translate(-50, -50)" d="M 90.375 90.375 L 9.625 90.375 L 9.625 9.625 L 90.375 9.625 L 90.375 90.375 z M 11.625 88.375 L 88.375 88.375 L 88.375 11.625 L 11.625 11.625 L 11.625 88.375 z" stroke-linecap="round" />
</g>
<g transform="matrix(0.13 0 0 -0.13 540 540)"  >
<path style="stroke: none; stroke-width: 1; stroke-dasharray: none; stroke-linecap: butt; stroke-dashoffset: 0; stroke-linejoin: miter; stroke-miterlimit: 4; fill: rgb(0,0,0); fill-rule: nonzero; opacity: 1;" vector-effect="non-scaling-stroke"  transform=" translate(-6500, -6502.5)" d="M 6128 8725 L 6125 8355 L 5758 8352 L 5390 8350 L 5390 7610 L 5390 6870 L 5760 6870 L 6130 6870 L 6130 6500 L 6130 6130 L 6500 6130 L 6870 6130 L 6870 5760 L 6870 5390 L 6130 5390 L 5390 5390 L 5390 5020 L 5390 4650 L 5760 4650 L 6130 4650 L 6130 4280 L 6130 3910 L 6500 3910 L 6870 3910 L 6870 4280 L 6870 4650 L 7240 4650 L 7610 4650 L 7610 5390 L 7610 6130 L 7240 6130 L 6870 6130 L 6869 6493 C 6868 6692 6868 6858 6869 6863 C 6869 6867 6704 6870 6500 6870 L 6130 6870 L 6130 7240 L 6130 7610 L 6870 7610 L 7610 7610 L 7610 7980 L 7610 8350 L 7240 8350 L 6870 8350 L 6870 8723 L 6870 9095 L 6500 9095 L 6130 9095 L 6128 8725 z" stroke-linecap="round" />
</g>
<g transform="matrix(2.89 -2.89 1.57 1.57 141.67 339.6)"  >
<polygon style="stroke: rgb(0,0,0); stroke-width: 0; stroke-dasharray: none; stroke-linecap: butt; stroke-dashoffset: 0; stroke-linejoin: miter; stroke-miterlimit: 4; fill: rgb(255,255,255); fill-rule: nonzero; opacity: 1;" vector-effect="non-scaling-stroke"  points="-37.43,32.41 0,-32.41 37.43,32.41 " />
</g>
<g transform="matrix(2.64 -3.13 1.7 1.43 230.1 241.21)" id="bae865b1-7fae-46e7-9b09-e7ce6b169289"  >
<polygon style="stroke: rgb(0,0,0); stroke-width: 0; stroke-dasharray: none; stroke-linecap: butt; stroke-dashoffset: 0; stroke-linejoin: miter; stroke-miterlimit: 4; fill: rgb(255,255,255); fill-rule: nonzero; opacity: 1;" vector-effect="non-scaling-stroke"  points="-37.43,32.41 0,-32.41 37.43,32.41 " />
</g>
<g transform="matrix(3.82 -3.82 2.21 2.21 264.32 155.98)"  >
<polygon style="stroke: rgb(0,0,0); stroke-width: 0; stroke-dasharray: none; stroke-linecap: butt; stroke-dashoffset: 0; stroke-linejoin: miter; stroke-miterlimit: 4; fill: rgb(255,255,255); fill-rule: nonzero; opacity: 1;" vector-effect="non-scaling-stroke"  points="-37.43,32.41 0,-32.41 37.43,32.41 " />
</g>
<g transform="matrix(-3.62 -3.62 2.09 -2.09 160.05 815.26)"  >
<polygon style="stroke: rgb(0,0,0); stroke-width: 0; stroke-dasharray: none; stroke-linecap: butt; stroke-dashoffset: 0; stroke-linejoin: miter; stroke-miterlimit: 4; fill: rgb(255,255,255); fill-rule: nonzero; opacity: 1;" vector-effect="non-scaling-stroke"  points="-37.43,32.41 0,-32.41 37.43,32.41 " />
</g>
<g transform="matrix(-2.92 -3.46 1.7 -1.43 346.56 941.84)"  >
<polygon style="stroke: rgb(0,0,0); stroke-width: 0; stroke-dasharray: none; stroke-linecap: butt; stroke-dashoffset: 0; stroke-linejoin: miter; stroke-miterlimit: 4; fill: rgb(255,255,255); fill-rule: nonzero; opacity: 1;" vector-effect="non-scaling-stroke"  points="-37.43,32.41 0,-32.41 37.43,32.41 " />
</g>
<g transform="matrix(2.89 2.89 -1.57 1.57 914.04 332.93)"  >
<polygon style="stroke: rgb(0,0,0); stroke-width: 0; stroke-dasharray: none; stroke-linecap: butt; stroke-dashoffset: 0; stroke-linejoin: miter; stroke-miterlimit: 4; fill: rgb(255,255,255); fill-rule: nonzero; opacity: 1;" vector-effect="non-scaling-stroke"  points="-37.43,32.41 0,-32.41 37.43,32.41 " />
</g>
<g transform="matrix(2.89 2.89 -1.57 1.57 722.21 142.74)"  >
<polygon style="stroke: rgb(0,0,0); stroke-width: 0; stroke-dasharray: none; stroke-linecap: butt; stroke-dashoffset: 0; stroke-linejoin: miter; stroke-miterlimit: 4; fill: rgb(255,255,255); fill-rule: nonzero; opacity: 1;" vector-effect="non-scaling-stroke"  points="-37.43,32.41 0,-32.41 37.43,32.41 " />
</g>
<g transform="matrix(2.89 2.89 -1.57 1.57 817.63 238.15)"  >
<polygon style="stroke: rgb(0,0,0); stroke-width: 0; stroke-dasharray: none; stroke-linecap: butt; stroke-dashoffset: 0; stroke-linejoin: miter; stroke-miterlimit: 4; fill: rgb(255,255,255); fill-rule: nonzero; opacity: 1;" vector-effect="non-scaling-stroke"  points="-37.43,32.41 0,-32.41 37.43,32.41 " />
</g>
<g transform="matrix(-3.2 3.2 -1.57 -1.57 726.4 910.97)"  >
<polygon style="stroke: rgb(0,0,0); stroke-width: 0; stroke-dasharray: none; stroke-linecap: butt; stroke-dashoffset: 0; stroke-linejoin: miter; stroke-miterlimit: 4; fill: rgb(255,255,255); fill-rule: nonzero; opacity: 1;" vector-effect="non-scaling-stroke"  points="-37.43,32.41 0,-32.41 37.43,32.41 " />
</g>
<g transform="matrix(-3.2 3.2 -1.57 -1.57 913.56 720.81)"  >
<polygon style="stroke: rgb(0,0,0); stroke-width: 0; stroke-dasharray: none; stroke-linecap: butt; stroke-dashoffset: 0; stroke-linejoin: miter; stroke-miterlimit: 4; fill: rgb(255,255,255); fill-rule: nonzero; opacity: 1;" vector-effect="non-scaling-stroke"  points="-37.43,32.41 0,-32.41 37.43,32.41 " />
</g>
</svg>