<?xml version="1.0" encoding="UTF-8"?>
<svg id="Layer_2" data-name="Layer 2" xmlns="http://www.w3.org/2000/svg" viewBox="0 0 64 64">
  <defs>
    <style>
      .cls-1 {
        fill: #fff;
      }

      .cls-2 {
        fill: #00ff7b;
      }
    </style>
  </defs>
  <g id="Layer_2-2" data-name="Layer 2">
    <rect class="cls-2" x="0" width="64" height="64" rx="10.02" ry="10.02"/>
    <g>
      <path d="M19.28,53.78h-4.31v-.88h-2.12v-1.1h-1.07v-1.03h-1.05v-2.18h-.94v-3.19c.31-.02,.61-.03,.95-.05v-2.1h1v-1.1h2.19v-1.02h7.41v-3.21h-.96v-4.33h-1.11v-5.31h-1.1v-3.21c-.25,0-.46-.02-.66,0-.28,.03-.35-.07-.35-.35,.01-1.91,0-3.83,0-5.74,0-.1,0-.2,.02-.34h2.08v-1.11h5.34v-1.08h5.43v-1.04h3.18v-1.08h3.21v-1.09h2.12v-1.03h2.11v-1.09h2.2v-1.09h2.12v-1.02h2.11v-1.03h2.19v4.22h1.05v7.45h.95v25.67h-.95v3.26h-1.01v1.07h-2.19v1.05h-8.55v-1.03h-2.12v-1.1h-1.09v-2.11h-1.05v-3.24h1.04v-3.21h1.09v-1.08h1.02c0-.2,0-.36,0-.53,0-.54-.07-.49,.48-.49,2.91,0,5.83,0,8.74,0,.13,0,.26-.01,.39-.02v-10.7h-.98v-4.3h-1.09v-.4c0-1.18,0-2.35,0-3.53,0-.1-.08-.28-.13-.28-.3-.03-.61-.01-.95-.01v1h-2.11v1.1h-2.14v1.08h-3.23v1.02h-.42c-.82,0-1.64,0-2.47,0-.22,0-.3,.07-.29,.29,.01,.26,0,.51,0,.82h-3.24v1.08h-5.35v5.32h1.02v16.08h-1.05v3.2h-1.04v1.1h-1.08v1.03h-1.1v1.08h-2.13v.88h0ZM36.44,17.54h2.12v-1.1h2.13v-1.03h1.04v-1.02h-2.12v1.08h-2.18v1.03h-2.11v1.09h-3.2v1.1h-4.28v.97h5.37c0-.26,.01-.49,0-.73-.02-.24,.08-.3,.31-.3,.85,.01,1.71,0,2.56,0,.11,0,.22-.01,.35-.02v-1.08h0ZM13.96,47.52v-2.13h.37c.5,0,1,0,1.5,0,.19,0,.26-.06,.25-.25-.01-.26,0-.51,0-.8h1.03v-1.03h-2.14v1.07h-2.05v3.15h1.04Zm8.59-27.82v1.03h5.23v-1.03h-5.23Zm16.05,21.47v4.16h1.06v-3.18h.97v-.98h-2.03Zm3.18-26.83c.66,0,1.31,0,1.96,0,.04,0,.12-.09,.12-.14,.01-.29,0-.58,0-.88h-2.08v1.02h0Zm-1.09,26.76h2.11v-1h-2.11v1Z"/>
      <path class="cls-1" d="M36.44,17.54v1.08c-.13,0-.24,.02-.35,.02-.85,0-1.71,0-2.56,0-.23,0-.32,.05-.31,.3,.02,.24,0,.47,0,.73h-5.37v-.97h4.28v-1.1h3.2v-1.09h2.11v-1.03h2.18v-1.08h2.12v1.02h-1.04v1.03h-2.13v1.1h-2.12Z"/>
      <path class="cls-1" d="M13.96,47.52h-1.04v-3.15h2.05v-1.07h2.14v1.03h-1.03c0,.29,0,.55,0,.8,0,.19-.06,.25-.25,.25-.5,0-1,0-1.5,0h-.37v2.13h0Z"/>
      <path class="cls-1" d="M22.55,19.7h5.23v1.03h-5.23v-1.03Z"/>
      <path class="cls-1" d="M38.61,41.17h2.03v.98h-.97v3.18h-1.06v-4.16h0Z"/>
      <path class="cls-1" d="M41.79,14.34v-1.02h2.08c0,.3,0,.59,0,.88,0,.05-.08,.14-.12,.14-.65,0-1.3,0-1.96,0h0Z"/>
      <path class="cls-1" d="M40.7,41.1v-1h2.11v1h-2.11Z"/>
    </g>
  </g>
</svg>