<?xml version="1.0" encoding="UTF-8"?>
<!DOCTYPE svg PUBLIC "-//W3C//DTD SVG 1.1//EN" "http://www.w3.org/Graphics/SVG/1.1/DTD/svg11.dtd">
<svg xmlns="http://www.w3.org/2000/svg" version="1.1" width="640px" height="640px" style="shape-rendering:geometricPrecision; text-rendering:geometricPrecision; image-rendering:optimizeQuality; fill-rule:evenodd; clip-rule:evenodd" xmlns:xlink="http://www.w3.org/1999/xlink">
<g><path style="opacity:0.955" fill="rgb(183, 183, 183)" d="M 151.5,62.5 C 172.167,62.5 192.833,62.5 213.5,62.5C 213.5,71.8333 213.5,81.1667 213.5,90.5C 294.5,90.5 375.5,90.5 456.5,90.5C 456.5,81.1667 456.5,71.8333 456.5,62.5C 476.833,62.5 497.167,62.5 517.5,62.5C 517.5,102.167 517.5,141.833 517.5,181.5C 527.833,181.5 538.167,181.5 548.5,181.5C 548.5,232.5 548.5,283.5 548.5,334.5C 538.167,334.5 527.833,334.5 517.5,334.5C 517.5,345.167 517.5,355.833 517.5,366.5C 507.5,366.5 497.5,366.5 487.5,366.5C 487.5,376.5 487.5,386.5 487.5,396.5C 457.167,396.5 426.833,396.5 396.5,396.5C 396.5,406.167 396.5,415.833 396.5,425.5C 406.5,425.5 416.5,425.5 426.5,425.5C 426.5,475.167 426.5,524.833 426.5,574.5C 364.506,575.591 302.506,575.757 240.5,575C 242.48,556.402 243.146,537.569 242.5,518.5C 222.167,518.5 201.833,518.5 181.5,518.5C 181.5,508.167 181.5,497.833 181.5,487.5C 171.5,487.5 161.5,487.5 151.5,487.5C 151.5,477.5 151.5,467.5 151.5,457.5C 141.167,457.5 130.833,457.5 120.5,457.5C 120.5,447.167 120.5,436.833 120.5,426.5C 110.5,426.5 100.5,426.5 90.5,426.5C 90.5,416.167 90.5,405.833 90.5,395.5C 111.167,395.5 131.833,395.5 152.5,395.5C 152.5,405.5 152.5,415.5 152.5,425.5C 162.5,425.5 172.5,425.5 182.5,425.5C 182.5,435.833 182.5,446.167 182.5,456.5C 202.5,456.5 222.5,456.5 242.5,456.5C 242.5,446.167 242.5,435.833 242.5,425.5C 252.5,425.5 262.5,425.5 272.5,425.5C 272.5,415.833 272.5,406.167 272.5,396.5C 242.167,396.5 211.833,396.5 181.5,396.5C 181.5,386.5 181.5,376.5 181.5,366.5C 171.5,366.5 161.5,366.5 151.5,366.5C 151.5,355.833 151.5,345.167 151.5,334.5C 141.167,334.5 130.833,334.5 120.5,334.5C 120.5,283.5 120.5,232.5 120.5,181.5C 130.833,181.5 141.167,181.5 151.5,181.5C 151.5,141.833 151.5,102.167 151.5,62.5 Z M 172.5,83.5 C 179.167,83.5 185.833,83.5 192.5,83.5C 192.334,89.5092 192.501,95.5092 193,101.5C 196.167,104.667 199.333,107.833 202.5,111C 290.833,111.667 379.167,111.667 467.5,111C 470.667,107.833 473.833,104.667 477,101.5C 477.499,95.5092 477.666,89.5092 477.5,83.5C 483.833,83.5 490.167,83.5 496.5,83.5C 496.333,119.835 496.5,156.168 497,192.5C 500.167,195.667 503.333,198.833 506.5,202C 513.492,202.5 520.492,202.666 527.5,202.5C 527.5,239.833 527.5,277.167 527.5,314.5C 520.492,314.334 513.492,314.5 506.5,315C 503.333,318.167 500.167,321.333 497,324.5C 496.5,331.492 496.334,338.492 496.5,345.5C 489.825,345.334 483.158,345.5 476.5,346C 473.333,349.167 470.167,352.333 467,355.5C 466.5,362.158 466.334,368.825 466.5,375.5C 439.498,375.333 412.498,375.5 385.5,376C 382.333,379.167 379.167,382.333 376,385.5C 375.333,402.5 375.333,419.5 376,436.5C 379.167,439.667 382.333,442.833 385.5,446C 392.158,446.5 398.825,446.666 405.5,446.5C 405.5,482.167 405.5,517.833 405.5,553.5C 358.171,554.796 310.838,555.13 263.5,554.5C 263.667,538.83 263.5,523.163 263,507.5C 259.833,504.333 256.667,501.167 253.5,498C 236.503,497.5 219.503,497.333 202.5,497.5C 202.5,490.833 202.5,484.167 202.5,477.5C 219.503,477.667 236.503,477.5 253.5,477C 256.667,473.833 259.833,470.667 263,467.5C 263.5,460.508 263.666,453.508 263.5,446.5C 270.175,446.666 276.842,446.5 283.5,446C 286.667,442.833 289.833,439.667 293,436.5C 293.667,419.5 293.667,402.5 293,385.5C 289.833,382.333 286.667,379.167 283.5,376C 256.502,375.5 229.502,375.333 202.5,375.5C 202.666,368.825 202.5,362.158 202,355.5C 198.833,352.333 195.667,349.167 192.5,346C 185.842,345.5 179.175,345.334 172.5,345.5C 172.666,338.492 172.5,331.492 172,324.5C 168.833,321.333 165.667,318.167 162.5,315C 155.508,314.5 148.508,314.334 141.5,314.5C 141.5,277.167 141.5,239.833 141.5,202.5C 148.508,202.666 155.508,202.5 162.5,202C 165.667,198.833 168.833,195.667 172,192.5C 172.5,156.168 172.667,119.835 172.5,83.5 Z"/></g>
</svg>
