<?xml version="1.0" encoding="UTF-8" standalone="no" ?>
<!DOCTYPE svg PUBLIC "-//W3C//DTD SVG 1.1//EN" "http://www.w3.org/Graphics/SVG/1.1/DTD/svg11.dtd">
<svg xmlns="http://www.w3.org/2000/svg" xmlns:xlink="http://www.w3.org/1999/xlink" version="1.1" width="1080" height="1080" viewBox="0 0 1080 1080" xml:space="preserve">
<desc>Created with Fabric.js 5.2.4</desc>
<defs>
</defs>

<g transform="matrix(1 0 0 1 540 540)" id="d9447e9f-69d5-45f1-8ffa-16c2bfa59dcc"  >
</g>
<g transform="matrix(0.13 0 0 -0.13 526.68 526.68)"  >
<path style="stroke: none; stroke-width: 1; stroke-dasharray: none; stroke-linecap: butt; stroke-dashoffset: 0; stroke-linejoin: miter; stroke-miterlimit: 4; fill: rgb(255,255,255); fill-rule: nonzero; opacity: 1;" vector-effect="non-scaling-stroke"  transform=" translate(-4105, -4195)" d="M 3530 8000 L 3530 7810 L 3340 7810 L 3150 7810 L 3150 7430 L 3150 7050 L 2770 7050 L 2390 7050 L 2390 7240 L 2390 7430 L 1820 7430 L 1250 7430 L 1250 7240 L 1250 7050 L 1060 7050 L 870 7050 L 870 6480 L 870 5910 L 1060 5910 L 1250 5910 L 1250 5530 L 1250 5150 L 870 5150 L 490 5150 L 490 4960 L 490 4770 L 300 4770 L 110 4770 L 110 4195 L 110 3620 L 300 3620 L 490 3620 L 490 3430 L 490 3240 L 870 3240 L 1250 3240 L 1250 2860 L 1250 2480 L 1060 2480 L 870 2480 L 870 1910 L 870 1340 L 1060 1340 L 1250 1340 L 1250 1150 L 1250 960 L 1820 960 L 2390 960 L 2390 1150 L 2390 1340 L 2770 1340 L 3150 1340 L 3150 960 L 3150 580 L 3340 580 L 3530 580 L 3530 390 L 3530 200 L 4105 200 L 4680 200 L 4680 390 L 4680 580 L 4870 580 L 5060 580 L 5060 960 L 5060 1340 L 5440 1340 L 5820 1340 L 5820 1150 L 5820 960 L 6390 960 L 6960 960 L 6960 1150 L 6960 1340 L 7150 1340 L 7340 1340 L 7340 1910 L 7340 2480 L 7150 2480 L 6960 2480 L 6960 2860 L 6960 3240 L 7340 3240 L 7720 3240 L 7720 3430 L 7720 3620 L 7910 3620 L 8100 3620 L 8100 4195 L 8100 4770 L 7910 4770 L 7720 4770 L 7720 4960 L 7720 5150 L 7340 5150 L 6960 5150 L 6960 5530 L 6960 5910 L 7150 5910 L 7340 5910 L 7340 6480 L 7340 7050 L 7150 7050 L 6960 7050 L 6960 7240 L 6960 7430 L 6390 7430 L 5820 7430 L 5820 7240 L 5820 7050 L 5440 7050 L 5060 7050 L 5060 7430 L 5060 7810 L 4870 7810 L 4680 7810 L 4680 8000 L 4680 8190 L 4105 8190 L 3530 8190 L 3530 8000 z M 4670 7430 L 4670 7050 L 4860 7050 L 5050 7050 L 5050 6860 L 5050 6670 L 5435 6670 L 5820 6670 L 5820 6860 L 5820 7050 L 6385 7050 L 6950 7050 L 6950 6480 L 6950 5910 L 6763 5908 L 6575 5905 L 6575 5525 L 6575 5145 L 6763 5142 L 6950 5140 L 6950 4966 C 6950 4870 6953 4785 6956 4776 C 6961 4762 7005 4760 7341 4760 L 7720 4760 L 7720 4195 L 7720 3630 L 7341 3630 C 7005 3630 6961 3628 6956 3614 C 6953 3605 6950 3520 6950 3424 L 6950 3250 L 6763 3248 L 6575 3245 L 6575 2865 L 6575 2485 L 6763 2482 L 6950 2480 L 6948 1913 L 6945 1346 L 6923 1347 C 6910 1347 6657 1348 6360 1349 L 5820 1350 L 5818 1537 L 5815 1725 L 5435 1725 L 5055 1725 L 5052 1537 L 5050 1350 L 4876 1350 C 4780 1350 4695 1347 4686 1344 C 4672 1339 4670 1295 4670 959 L 4670 580 L 4105 580 L 3540 580 L 3540 959 C 3540 1295 3538 1339 3524 1344 C 3515 1347 3430 1350 3334 1350 L 3160 1350 L 3158 1537 L 3155 1725 L 2775 1725 L 2395 1725 L 2392 1538 L 2390 1350 L 1820 1350 L 1250 1350 L 1250 1915 L 1250 2480 L 1440 2480 L 1630 2480 L 1630 2865 L 1630 3250 L 1440 3250 L 1250 3250 L 1250 3440 L 1250 3630 L 870 3630 L 490 3630 L 490 4195 L 490 4760 L 870 4760 L 1250 4760 L 1250 4950 L 1250 5140 L 1440 5140 L 1630 5140 L 1630 5525 L 1630 5910 L 1440 5910 L 1250 5910 L 1250 6480 L 1250 7050 L 1820 7050 L 2390 7050 L 2390 6860 L 2390 6670 L 2775 6670 L 3160 6670 L 3160 6860 L 3160 7050 L 3350 7050 L 3540 7050 L 3540 7430 L 3540 7810 L 4105 7810 L 4670 7810 L 4670 7430 z" stroke-linecap="round" />
</g>
<g transform="matrix(0.13 0 0 -0.13 536.82 536.82)"  >
<path style="stroke: none; stroke-width: 1; stroke-dasharray: none; stroke-linecap: butt; stroke-dashoffset: 0; stroke-linejoin: miter; stroke-miterlimit: 4; fill: rgb(255,255,255); fill-rule: nonzero; opacity: 1;" vector-effect="non-scaling-stroke"  transform=" translate(-4105, -4195)" d="M 3530 4960 L 3530 4770 L 3340 4770 L 3150 4770 L 3150 4195 L 3150 3620 L 3340 3620 L 3530 3620 L 3530 3430 L 3530 3240 L 4105 3240 L 4680 3240 L 4680 3430 L 4680 3620 L 4870 3620 L 5060 3620 L 5060 4195 L 5060 4770 L 4870 4770 L 4680 4770 L 4680 4960 L 4680 5150 L 4105 5150 L 3530 5150 L 3530 4960 z M 4674 4754 C 4677 4745 4680 4492 4680 4191 C 4680 3779 4677 3641 4668 3632 C 4659 3623 4521 3620 4109 3620 C 3808 3620 3555 3623 3546 3626 C 3532 3632 3530 3691 3530 4194 C 3530 4504 3533 4760 3537 4763 C 3540 4767 3796 4770 4106 4770 C 4609 4770 4668 4768 4674 4754 z" stroke-linecap="round" />
</g>
<g transform="matrix(4.67 0 0 4.67 308.96 308.59)" id="a3c2b0e8-7a56-4efa-bcc2-8b534a6ff105"  >
<rect style="stroke: rgb(0,0,0); stroke-width: 0; stroke-dasharray: none; stroke-linecap: butt; stroke-dashoffset: 0; stroke-linejoin: miter; stroke-miterlimit: 4; fill: rgb(255,255,255); fill-rule: nonzero; opacity: 1;" vector-effect="non-scaling-stroke"  x="-33.085" y="-33.085" rx="0" ry="0" width="66.17" height="66.17" />
</g>
<g transform="matrix(4.67 0 0 4.67 765.93 309.01)" id="a3c2b0e8-7a56-4efa-bcc2-8b534a6ff105"  >
<rect style="stroke: rgb(0,0,0); stroke-width: 0; stroke-dasharray: none; stroke-linecap: butt; stroke-dashoffset: 0; stroke-linejoin: miter; stroke-miterlimit: 4; fill: rgb(255,255,255); fill-rule: nonzero; opacity: 1;" vector-effect="non-scaling-stroke"  x="-33.085" y="-33.085" rx="0" ry="0" width="66.17" height="66.17" />
</g>
<g transform="matrix(4.67 0 0 4.67 308.92 763.6)" id="a3c2b0e8-7a56-4efa-bcc2-8b534a6ff105"  >
<rect style="stroke: rgb(0,0,0); stroke-width: 0; stroke-dasharray: none; stroke-linecap: butt; stroke-dashoffset: 0; stroke-linejoin: miter; stroke-miterlimit: 4; fill: rgb(255,255,255); fill-rule: nonzero; opacity: 1;" vector-effect="non-scaling-stroke"  x="-33.085" y="-33.085" rx="0" ry="0" width="66.17" height="66.17" />
</g>
<g transform="matrix(4.36 0 0 4.36 752.4 754.12)" id="a3c2b0e8-7a56-4efa-bcc2-8b534a6ff105"  >
<rect style="stroke: rgb(0,0,0); stroke-width: 0; stroke-dasharray: none; stroke-linecap: butt; stroke-dashoffset: 0; stroke-linejoin: miter; stroke-miterlimit: 4; fill: rgb(255,255,255); fill-rule: nonzero; opacity: 1;" vector-effect="non-scaling-stroke"  x="-33.085" y="-33.085" rx="0" ry="0" width="66.17" height="66.17" />
</g>
<g transform="matrix(6.04 0 0 2.41 255.19 531.84)" id="a3c2b0e8-7a56-4efa-bcc2-8b534a6ff105"  >
<rect style="stroke: rgb(0,0,0); stroke-width: 0; stroke-dasharray: none; stroke-linecap: butt; stroke-dashoffset: 0; stroke-linejoin: miter; stroke-miterlimit: 4; fill: rgb(255,255,255); fill-rule: nonzero; opacity: 1;" vector-effect="non-scaling-stroke"  x="-33.085" y="-33.085" rx="0" ry="0" width="66.17" height="66.17" />
</g>
<g transform="matrix(5.51 0 0 2.55 814.35 535.72)" id="a3c2b0e8-7a56-4efa-bcc2-8b534a6ff105"  >
<rect style="stroke: rgb(0,0,0); stroke-width: 0; stroke-dasharray: none; stroke-linecap: butt; stroke-dashoffset: 0; stroke-linejoin: miter; stroke-miterlimit: 4; fill: rgb(255,255,255); fill-rule: nonzero; opacity: 1;" vector-effect="non-scaling-stroke"  x="-33.085" y="-33.085" rx="0" ry="0" width="66.17" height="66.17" />
</g>
<g transform="matrix(0 -5.71 2.56 0 535.17 808.44)" id="a3c2b0e8-7a56-4efa-bcc2-8b534a6ff105"  >
<rect style="stroke: rgb(0,0,0); stroke-width: 0; stroke-dasharray: none; stroke-linecap: butt; stroke-dashoffset: 0; stroke-linejoin: miter; stroke-miterlimit: 4; fill: rgb(255,255,255); fill-rule: nonzero; opacity: 1;" vector-effect="non-scaling-stroke"  x="-33.085" y="-33.085" rx="0" ry="0" width="66.17" height="66.17" />
</g>
<g transform="matrix(0 -5.92 2.61 0 533.37 252.17)" id="a3c2b0e8-7a56-4efa-bcc2-8b534a6ff105"  >
<rect style="stroke: rgb(0,0,0); stroke-width: 0; stroke-dasharray: none; stroke-linecap: butt; stroke-dashoffset: 0; stroke-linejoin: miter; stroke-miterlimit: 4; fill: rgb(255,255,255); fill-rule: nonzero; opacity: 1;" vector-effect="non-scaling-stroke"  x="-33.085" y="-33.085" rx="0" ry="0" width="66.17" height="66.17" />
</g>
</svg>