<?xml version="1.0" standalone="no"?>
<!DOCTYPE svg PUBLIC "-//W3C//DTD SVG 20010904//EN"
 "http://www.w3.org/TR/2001/REC-SVG-20010904/DTD/svg10.dtd">
<svg version="1.0" xmlns="http://www.w3.org/2000/svg"
 width="820.000000pt" height="860.000000pt" viewBox="0 0 820.000000 860.000000"
 preserveAspectRatio="xMidYMid meet">

<g transform="translate(0.000000,860.000000) scale(0.100000,-0.100000)"
fill="rgb(183, 183, 183)" stroke="none">
<path d="M3530 8000 l0 -190 -190 0 -190 0 0 -380 0 -380 -380 0 -380 0 0 190
0 190 -570 0 -570 0 0 -190 0 -190 -190 0 -190 0 0 -570 0 -570 190 0 190 0 0
-380 0 -380 -380 0 -380 0 0 -190 0 -190 -190 0 -190 0 0 -575 0 -575 190 0
190 0 0 -190 0 -190 380 0 380 0 0 -380 0 -380 -190 0 -190 0 0 -570 0 -570
190 0 190 0 0 -190 0 -190 570 0 570 0 0 190 0 190 380 0 380 0 0 -380 0 -380
190 0 190 0 0 -190 0 -190 575 0 575 0 0 190 0 190 190 0 190 0 0 380 0 380
380 0 380 0 0 -190 0 -190 570 0 570 0 0 190 0 190 190 0 190 0 0 570 0 570
-190 0 -190 0 0 380 0 380 380 0 380 0 0 190 0 190 190 0 190 0 0 575 0 575
-190 0 -190 0 0 190 0 190 -380 0 -380 0 0 380 0 380 190 0 190 0 0 570 0 570
-190 0 -190 0 0 190 0 190 -570 0 -570 0 0 -190 0 -190 -380 0 -380 0 0 380 0
380 -190 0 -190 0 0 190 0 190 -575 0 -575 0 0 -190z m1140 -570 l0 -380 190
0 190 0 0 -190 0 -190 385 0 385 0 0 190 0 190 565 0 565 0 0 -570 0 -570
-187 -2 -188 -3 0 -380 0 -380 188 -3 187 -2 0 -174 c0 -96 3 -181 6 -190 5
-14 49 -16 385 -16 l379 0 0 -565 0 -565 -379 0 c-336 0 -380 -2 -385 -16 -3
-9 -6 -94 -6 -190 l0 -174 -187 -2 -188 -3 0 -380 0 -380 188 -3 187 -2 -2
-567 -3 -567 -22 1 c-13 0 -266 1 -563 2 l-540 1 -2 187 -3 188 -380 0 -380 0
-3 -188 -2 -187 -174 0 c-96 0 -181 -3 -190 -6 -14 -5 -16 -49 -16 -385 l0
-379 -565 0 -565 0 0 379 c0 336 -2 380 -16 385 -9 3 -94 6 -190 6 l-174 0 -2
187 -3 188 -380 0 -380 0 -3 -187 -2 -188 -570 0 -570 0 0 565 0 565 190 0
190 0 0 385 0 385 -190 0 -190 0 0 190 0 190 -380 0 -380 0 0 565 0 565 380 0
380 0 0 190 0 190 190 0 190 0 0 385 0 385 -190 0 -190 0 0 570 0 570 570 0
570 0 0 -190 0 -190 385 0 385 0 0 190 0 190 190 0 190 0 0 380 0 380 565 0
565 0 0 -380z"/>
<path d="M3530 4960 l0 -190 -190 0 -190 0 0 -575 0 -575 190 0 190 0 0 -190
0 -190 575 0 575 0 0 190 0 190 190 0 190 0 0 575 0 575 -190 0 -190 0 0 190
0 190 -575 0 -575 0 0 -190z m1144 -206 c3 -9 6 -262 6 -563 0 -412 -3 -550
-12 -559 -9 -9 -147 -12 -559 -12 -301 0 -554 3 -563 6 -14 6 -16 65 -16 568
0 310 3 566 7 569 3 4 259 7 569 7 503 0 562 -2 568 -16z"/>
</g>
</svg>
